<?xml version="1.0" encoding="UTF-8"?>
<svg version="1.1" xmlns="http://www.w3.org/2000/svg" width="225" height="225">
<path d="M0 0 C74.25 0 148.5 0 225 0 C225 74.25 225 148.5 225 225 C150.75 225 76.5 225 0 225 C0 150.75 0 76.5 0 0 Z " fill="#0B2F2F" transform="translate(0,0)"/>
<path d="M0 0 C0.65593643 0.00141495 1.31187286 0.0028299 1.98768616 0.00428772 C4.08688907 0.00988801 6.18598562 0.02242818 8.28515625 0.03515625 C9.69596199 0.0401723 11.10676941 0.04473503 12.51757812 0.04882812 C16.12763377 0.0602241 19.73763103 0.07895146 23.34765625 0.09765625 C25.17768377 0.09765625 27.00882549 0.06029033 28.8359375 -0.04296875 C34.87477523 -0.27683798 38.69450991 -0.20650412 43.34765625 4.09765625 C46.51128403 7.78855533 46.86366936 11.17583718 46.70703125 15.8828125 C45.96427129 20.46047445 42.86133912 24.19504867 39.34765625 27.09765625 C36.57713444 28.02116352 34.78076867 28.2609521 31.91015625 28.28515625 C31.14832031 28.29933594 30.38648438 28.31351563 29.6015625 28.328125 C27.34765625 28.09765625 27.34765625 28.09765625 23.34765625 26.09765625 C23.34765625 32.69765625 23.34765625 39.29765625 23.34765625 46.09765625 C21.36765625 46.09765625 19.38765625 46.09765625 17.34765625 46.09765625 C17.34765625 32.89765625 17.34765625 19.69765625 17.34765625 6.09765625 C10.08765625 6.42765625 2.82765625 6.75765625 -4.65234375 7.09765625 C-4.65234375 8.08765625 -4.65234375 9.07765625 -4.65234375 10.09765625 C-3.77191406 10.13503906 -2.89148438 10.17242187 -1.984375 10.2109375 C-0.82292969 10.27667969 0.33851562 10.34242187 1.53515625 10.41015625 C2.68371094 10.46816406 3.83226563 10.52617188 5.015625 10.5859375 C8.52764897 11.12529874 10.51064723 11.99712855 13.34765625 14.09765625 C14.91701219 17.23636813 14.69966728 19.63621447 14.34765625 23.09765625 C11.71118265 26.5379821 10.25996471 27.94594198 5.93432617 28.6652832 C4.66177979 28.63909912 3.3892334 28.61291504 2.078125 28.5859375 C1.39712234 28.57886276 0.71611969 28.57178802 0.01448059 28.5644989 C-2.1464437 28.53665694 -4.30471197 28.47395152 -6.46484375 28.41015625 C-7.93550927 28.38505957 -9.40621568 28.36224878 -10.87695312 28.34179688 C-14.46960332 28.28686813 -18.06071403 28.20067272 -21.65234375 28.09765625 C-21.65234375 26.11765625 -21.65234375 24.13765625 -21.65234375 22.09765625 C-11.75234375 22.09765625 -1.85234375 22.09765625 8.34765625 22.09765625 C8.01765625 20.77765625 7.68765625 19.45765625 7.34765625 18.09765625 C6.46722656 18.071875 5.58679688 18.04609375 4.6796875 18.01953125 C3.51824219 17.9628125 2.35679688 17.90609375 1.16015625 17.84765625 C0.01160156 17.80125 -1.13695313 17.75484375 -2.3203125 17.70703125 C-6.19789474 16.99788374 -7.90456662 15.88562025 -10.65234375 13.09765625 C-11.81831785 9.08962028 -12.08474876 7.04482914 -10.33984375 3.22265625 C-7.309925 -0.59279699 -4.67905288 -0.01996576 0 0 Z " fill="#EFF2F1" transform="translate(54.65234375,92.90234375)"/>
<path d="M0 0 C0.99 0 1.98 0 3 0 C4.98 0 6.96 0 9 0 C9 9.24 9 18.48 9 28 C5.66666667 28 2.33333333 28 -1 28 C-1.76957031 28.06960937 -2.53914063 28.13921875 -3.33203125 28.2109375 C-8.11410644 28.52723224 -11.20377765 28.42428814 -15 25.3125 C-18.66110616 21.62555073 -19.81099342 18.73256027 -20.375 13.5625 C-19.81649269 8.25668055 -17.34559968 5.54947842 -13.9375 1.625 C-9.42239622 -0.87271698 -5.04431645 -0.28110742 0 0 Z " fill="#F4F6F6" transform="translate(123,93)"/>
<path d="M0 0 C2.99417353 2.55385389 5.3603812 5.2832624 7.125 8.8125 C7.125 11.1225 7.125 13.4325 7.125 15.8125 C-0.135 15.8125 -7.395 15.8125 -14.875 15.8125 C-12.49053841 19.89813405 -12.49053841 19.89813405 -9.9375 20.23828125 C-9.256875 20.20089844 -8.57625 20.16351563 -7.875 20.125 C-7.194375 20.10050781 -6.51375 20.07601562 -5.8125 20.05078125 C-3.66054857 19.85105107 -3.66054857 19.85105107 -0.875 18.8125 C0.115 19.8025 1.105 20.7925 2.125 21.8125 C1.125 24.8125 1.125 24.8125 -0.640625 25.96484375 C-4.73979847 27.51994977 -8.58443751 27.67189518 -12.875 26.8125 C-17.07100772 24.25245614 -20.3041 21.52519999 -21.875 16.8125 C-22.42008569 12.12118877 -22.32334676 8.70919352 -20.1875 4.4375 C-14.69795365 -1.79387694 -7.76167452 -3.20590904 0 0 Z " fill="#F1F4F4" transform="translate(184.875,94.1875)"/>
<path d="M0 0 C2.46565546 1.07813832 3.94104301 2.21928044 6 4 C5.67 5.32 5.34 6.64 5 8 C3.125 8.625 3.125 8.625 1 9 C0.34 8.34 -0.32 7.68 -1 7 C-6.58602797 6.42402097 -6.58602797 6.42402097 -11.5625 8.5625 C-13.30993554 11.03995263 -13.30993554 11.03995263 -12.9375 14.5625 C-12.18863616 17.83462035 -12.18863616 17.83462035 -10.9375 19.9375 C-7.77476884 21.67190096 -4.48204252 21.42737343 -1 21 C1.40557853 20.13734032 1.40557853 20.13734032 3 19 C3.99 19.66 4.98 20.32 6 21 C5.70926678 23.81042113 5.18436938 24.83347282 3.0625 26.75 C-1.34494997 28.54895917 -5.3042083 28.67727765 -10 28 C-14.40802625 25.83605984 -17.23139226 23.61803133 -19 19 C-19.60986524 14.56831258 -20.0832989 10.10018867 -17.98046875 6.0234375 C-12.7967965 -0.33478284 -7.7534052 -0.94984736 0 0 Z " fill="#F1F3F4" transform="translate(154,93)"/>
<path d="M0 0 C3.63525215 2.60789828 4.83397068 4.0702358 5.625 8.5 C4.82883761 12.95850936 3.69186542 14.40783917 0 17 C-3.96476406 17.62601538 -5.99762021 17.65946039 -9.375 15.4375 C-11.55226285 12.17160572 -12 9.92016134 -12 6 C-8.72400863 0.8035999 -6.13119148 -0.72131664 0 0 Z " fill="#0F2F2F" transform="translate(90,98)"/>
<path d="M0 0 C2.5 1.5625 2.5 1.5625 4 4 C4.59172793 8.06812955 4.37276489 10.27000208 2.5 13.9375 C-0.55589307 16.45861178 -2.23668182 16.63134586 -6.09765625 16.34375 C-8.95159775 15.82804804 -10.19219609 15.31398901 -12 13 C-12.96017363 10.26172706 -13.31495037 7.89079443 -13 5 C-9.42976287 -0.52810911 -6.10488519 -0.87212646 0 0 Z " fill="#0D2E2E" transform="translate(122,99)"/>
<path d="M0 0 C0.91644287 0.00523682 1.83288574 0.01047363 2.77709961 0.01586914 C3.66792236 0.0183667 4.55874512 0.02086426 5.4765625 0.0234375 C7.18573853 0.03709351 7.18573853 0.03709351 8.92944336 0.05102539 C14.34350586 0.08196289 14.34350586 0.08196289 19.86694336 0.11352539 C19.86694336 12.98352539 19.86694336 25.85352539 19.86694336 39.11352539 C19.53694336 39.11352539 19.20694336 39.11352539 18.86694336 39.11352539 C18.85236084 38.38762207 18.83777832 37.66171875 18.82275391 36.91381836 C18.74799477 33.60486807 18.65142546 30.29689587 18.55444336 26.98852539 C18.53188477 25.84641602 18.50932617 24.70430664 18.48608398 23.52758789 C18.33973537 15.35257756 18.33973537 15.35257756 14.86694336 8.11352539 C11.62475191 5.66036283 8.08544094 5.72663525 4.11694336 5.48852539 C2.94647461 5.41375977 1.77600586 5.33899414 0.57006836 5.26196289 C-0.32196289 5.21297852 -1.21399414 5.16399414 -2.13305664 5.11352539 C-2.69555664 3.17602539 -2.69555664 3.17602539 -3.13305664 1.11352539 C-2.13305664 0.11352539 -2.13305664 0.11352539 0 0 Z " fill="#082422" transform="translate(52.133056640625,98.886474609375)"/>
<path d="M0 0 C6.93 0 13.86 0 21 0 C21 0.33 21 0.66 21 1 C19.02 1.33 17.04 1.66 15 2 C15.99 3.32 16.98 4.64 18 6 C17.21625 5.649375 16.4325 5.29875 15.625 4.9375 C14.75875 4.628125 13.8925 4.31875 13 4 C12.01 4.495 12.01 4.495 11 5 C3.67635403 5.46499339 3.67635403 5.46499339 1 3.625 C0 2 0 2 0 0 Z " fill="#072222" transform="translate(170,110)"/>
<path d="M0 0 C3.275789 0.02352452 3.98029867 0.15191897 6.6875 2.25 C8.1875 4.3125 8.1875 4.3125 8.1875 5.3125 C3.2375 5.3125 -1.7125 5.3125 -6.8125 5.3125 C-4.33386752 0.35523504 -4.33386752 0.35523504 0 0 Z " fill="#07201E" transform="translate(176.8125,98.6875)"/>
<path d="M0 0 C2.0625 0.4375 2.0625 0.4375 4 1 C4.38218767 2.65614657 4.71395102 4.32457024 5 6 C4 7 4 7 1.4375 7.0625 C0.2309375 7.0315625 0.2309375 7.0315625 -1 7 C-1.04254356 5.00045254 -1.04080783 2.99958364 -1 1 C-0.67 0.67 -0.34 0.34 0 0 Z " fill="#52696A" transform="translate(80,130)"/>
<path d="M0 0 C1.65 0.33 3.3 0.66 5 1 C5 2.65 5 4.3 5 6 C3.125 6.625 3.125 6.625 1 7 C0.34 6.34 -0.32 5.68 -1 5 C-0.625 2.375 -0.625 2.375 0 0 Z " fill="#EFF2F2" transform="translate(175,84)"/>
<path d="M0 0 C2.0625 0.4375 2.0625 0.4375 4 1 C4 2.98 4 4.96 4 7 C2.68 6.34 1.36 5.68 0 5 C-0.33 5.66 -0.66 6.32 -1 7 C-1.04254356 5.00045254 -1.04080783 2.99958364 -1 1 C-0.67 0.67 -0.34 0.34 0 0 Z " fill="#6C7F7F" transform="translate(153,130)"/>
<path d="M0 0 C2.0625 0.4375 2.0625 0.4375 4 1 C5.125 4.75 5.125 4.75 4 7 C2.35 7 0.7 7 -1 7 C-0.34 6.34 0.32 5.68 1 5 C1 4.01 1 3.02 1 2 C0.34 1.67 -0.32 1.34 -1 1 C-0.67 0.67 -0.34 0.34 0 0 Z " fill="#637A7B" transform="translate(143,130)"/>
<path d="M0 0 C0 0.33 0 0.66 0 1 C-1.0725 1.268125 -2.145 1.53625 -3.25 1.8125 C-6.56508928 2.86227827 -8.43877646 3.74612328 -11 6 C-10.6875 4.125 -10.6875 4.125 -10 2 C-6.3558226 -0.4294516 -4.28758728 -0.16179575 0 0 Z " fill="#0B2725" transform="translate(121,99)"/>
<path d="M0 0 C0.66 0.33 1.32 0.66 2 1 C2 2.32 2 3.64 2 5 C0.68 5 -0.64 5 -2 5 C-2 3.68 -2 2.36 -2 1 C-1.34 0.67 -0.68 0.34 0 0 Z " fill="#062323" transform="translate(165,131)"/>
</svg>
